#!OML:ASF F:\VICON\USERDATA\INSTALL\rory3\rory3.ASF
:FULLY-SPECIFIED
:DEGREES
553
root 5.65833 17.722 -3.11346 180.186 210.023 179.244
lowerback 10.331 1.21199 0.646123
upperback 1.12489 1.74687 1.59189
thorax -4.65048 0.85767 1.04742
lowerneck -12.8026 -9.18267 -14.4923
upperneck 30.0289 -14.2708 13.0818
head 14.5667 -6.43995 5.30814
rclavicle -1.52567e-014 3.18055e-015
rhumerus -40.0264 28.845 -98.2842
rradius 100.617
rwrist -13.2356
rhand -22.7843 15.5584
rfingers 7.12502
rthumb 3.65142 -14.3901
lclavicle -1.52567e-014 3.18055e-015
lhumerus -40.9524 -31.9251 97.5859
lradius 99.3179
lwrist -11.2999
lhand -24.022 19.8483
lfingers 7.12502
lthumb 2.45616 49.8139
rfemur 9.8257 6.30562 26.515
rtibia 20.958
rfoot -15.5801 10.1547
rtoes 9.38288
lfemur -22.6411 -1.87259 -18.9529
ltibia 21.2146
lfoot -3.37124 -6.23253
ltoes -19.1506
554
root 5.6139 17.7295 -3.00259 180.257 210.281 179.288
lowerback 10.1764 1.15448 0.646522
upperback 1.06545 1.66788 1.55071
thorax -4.62393 0.818808 1.01781
lowerneck -12.7803 -9.05295 -14.4671
upperneck 30.3197 -14.0834 12.9345
head 14.6395 -6.37642 5.29296
rclavicle 2.76311e-014 -7.95139e-015
rhumerus -40.3744 28.8066 -98.4793
rradius 100.604
rwrist -13.0498
rhand -22.6754 15.3997
rfingers 7.12502
rthumb 3.75658 -14.5469
lclavicle 2.76311e-014 -7.95139e-015
lhumerus -41.2409 -31.625 97.687
lradius 99.2878
lwrist -11.3625
lhand -24.1182 19.4175
lfingers 7.12502
lthumb 2.36321 49.3842
rfemur 10.0791 6.13282 26.2952
rtibia 21.0142
rfoot -15.2109 10.7088
rtoes 9.53608
lfemur -22.4088 -2.41142 -19.0479
ltibia 21.4827
lfoot -2.65399 -6.87458
ltoes -12.9766
555
root 5.5738 17.745 -2.89297 180.382 210.526 179.54
lowerback 9.8891 1.13752 0.534214
upperback 0.98502 1.62571 1.43108
thorax -4.54648 0.800034 0.966837
lowerneck -12.7904 -8.98918 -14.3918
upperneck 30.605 -13.9887 12.7477
head 14.7272 -6.34944 5.23155
rclavicle -4.22914e-014 -7.15625e-015
rhumerus -40.5276 28.585 -98.5992
rradius 100.485
rwrist -12.828
rhand -22.6294 15.4586
rfingers 7.12502
rthumb 3.80102 -14.4872
lclavicle -4.22914e-014 -7.15625e-015
lhumerus -41.4234 -31.4566 97.749
lradius 99.2761
lwrist -11.3862
lhand -23.917 19.0877
lfingers 7.12502
lthumb 2.5575 49.0521
rfemur 10.1286 5.93532 25.7996
rtibia 21.0884
rfoot -14.6997 11.4145
rtoes 9.67498
lfemur -22.3844 -3.09384 -19.2811
ltibia 21.6367
lfoot -1.55963 -7.50831
ltoes -4.67629
556
root 5.53807 17.7654 -2.78526 180.383 210.725 180.129
lowerback 9.6384 1.13502 0.17481
upperback 0.842079 1.57454 1.21258
thorax -4.55825 0.780945 0.951845
lowerneck -12.7246 -8.94322 -14.3873
upperneck 30.8904 -13.9425 12.642
head 14.8233 -6.34654 5.20968
rclavicle -3.93594e-014 1.35174e-014
rhumerus -40.8292 28.3002 -98.7469
rradius 100.412
rwrist -12.6044
rhand -22.5332 15.5933
rfingers 7.12502
rthumb 3.89393 -14.3509
lclavicle -3.93594e-014 1.35174e-014
lhumerus -41.6968 -31.4029 97.8639
lradius 99.2724
lwrist -11.4282
lhand -23.6043 18.9315
lfingers 7.12502
lthumb 2.85955 48.8921
rfemur 10.056 5.75082 24.9737
rtibia 21.2144
rfoot -14.0302 12.1282
rtoes 9.71474
lfemur -22.4674 -3.79847 -19.827
ltibia 21.7597
lfoot -0.661705 -7.61303
ltoes -0.0581915
557
root 5.4935 17.7845 -2.6809 180.389 210.886 180.308
lowerback 9.58784 1.0896 0.06081
upperback 0.774383 1.49709 1.08503
thorax -4.59872 0.744235 0.893973
lowerneck -12.6692 -8.87586 -14.2764
upperneck 31.0652 -13.8793 12.5543
head 14.8593 -6.32163 5.17536
rclavicle 6.90777e-015 -1.82882e-014
rhumerus -41.1431 28.0573 -98.9429
rradius 100.362
rwrist -12.3457
rhand -22.3625 15.7402
rfingers 7.12502
rthumb 4.05871 -14.2009
lclavicle 6.90777e-015 -1.82882e-014
lhumerus -41.9921 -31.212 97.9408
lradius 99.2758
lwrist -11.5997
lhand -23.3826 18.8772
lfingers 7.12502
lthumb 3.07366 48.8348
rfemur 10.1359 5.66323 24.6769
rtibia 21.4818
rfoot -13.5653 12.4761
rtoes 8.69597
lfemur -22.3529 -4.2967 -19.9936
ltibia 21.8689
lfoot -0.322783 -7.08468
ltoes -0.995959
558
root 5.43451 17.798 -2.57876 180.36 211.235 180.125
lowerback 9.69955 1.10567 0.0163652
upperback 0.83687 1.51496 1.12803
thorax -4.59861 0.753804 0.959916
lowerneck -12.8922 -8.81381 -14.1894
upperneck 31.3438 -13.7766 12.4205
head 14.9983 -6.27451 5.12861
rclavicle -1.09829e-014 -2.78299e-015
rhumerus -41.3727 27.9028 -99.0425
rradius 100.329
rwrist -12.1544
rhand -22.3664 15.9465
rfingers 7.12502
rthumb 4.055 -13.9947
lclavicle -1.09829e-014 -2.78299e-015
lhumerus -42.2088 -30.9136 98.0449
lradius 99.2653
lwrist -11.7113
lhand -23.2761 19.0949
lfingers 7.12502
lthumb 3.17642 49.051
rfemur 10.423 5.8227 24.8494
rtibia 21.8519
rfoot -13.2177 12.5891
rtoes 7.05748
lfemur -21.9627 -4.34723 -19.8149
ltibia 22.0414
lfoot -0.331682 -6.19236
ltoes -1.96897
559
root 5.37171 17.8032 -2.47604 180.165 211.73 180.103
lowerback 9.83832 1.18725 -0.273729
upperback 0.994279 1.59173 1.17504
thorax -4.52255 0.796457 1.16068
lowerneck -13.3711 -8.79122 -14.0549
upperneck 31.6709 -13.6788 12.1827
head 15.2068 -6.2235 5.02093
rclavicle -2.9271e-014 -1.03368e-014
rhumerus -41.4109 27.8341 -99.0423
rradius 100.238
rwrist -12.0613
rhand -22.2219 16.0875
rfingers 7.12502
rthumb 4.19448 -13.851
lclavicle -2.9271e-014 -1.03368e-014
lhumerus -42.2182 -30.7023 98.0694
lradius 99.1792
lwrist -11.7931
lhand -23.3619 18.9845
lfingers 7.12502
lthumb 3.09358 48.9418
rfemur 10.7756 6.06551 24.8406
rtibia 22.2514
rfoot -12.4575 12.9207
rtoes 7.09339
lfemur -21.4807 -4.04309 -19.8261
ltibia 22.381
lfoot -0.595897 -5.54763
ltoes -2.20208
560
root 5.31719 17.8093 -2.37056 180.008 212.028 180.115
lowerback 9.94181 1.18574 -0.36412
upperback 1.12443 1.57447 1.10738
thorax -4.44452 0.787822 1.14291
lowerneck -13.6739 -8.75499 -13.8709
upperneck 31.7992 -13.6154 12.073
head 15.2967 -6.1748 4.95038
rclavicle -3.54334e-014 3.97569e-016
rhumerus -41.4709 27.6039 -99.1505
rradius 100.083
rwrist -11.9135
rhand -21.9024 16.1229
rfingers 7.12502
rthumb 4.50298 -13.8092
lclavicle -3.54334e-014 3.97569e-016
lhumerus -42.1758 -30.5891 97.9214
lradius 99.0788
lwrist -11.8891
lhand -23.0029 18.7212
lfingers 7.12502
lthumb 3.44031 48.6732
rfemur 10.9796 6.0443 24.7251
rtibia 22.7748
rfoot -11.4455 13.399
rtoes 7.39261
lfemur -21.0906 -3.76544 -19.9248
ltibia 22.7989
lfoot -0.856166 -5.30445
ltoes -3.59701
561
root 5.2668 17.8196 -2.26379 180.068 212.173 179.969
lowerback 10.0456 1.16323 -0.214862
upperback 1.00483 1.56148 1.0758
thorax -4.62203 0.779324 1.02468
lowerneck -13.3798 -8.68957 -13.8684
upperneck 31.8134 -13.5541 12.0489
head 15.2205 -6.16671 4.96204
rclavicle -1.25731e-014 3.97569e-016
rhumerus -42.0968 27.1415 -99.3585
rradius 100.055
rwrist -11.7825
rhand -21.6237 15.9963
rfingers 7.12502
rthumb 4.77213 -13.93
lclavicle -1.25731e-014 3.97569e-016
lhumerus -42.6198 -30.5449 98.1763
lradius 99.0286
lwrist -11.9495
lhand -22.5387 18.7907
lfingers 7.12502
lthumb 3.88856 48.735
rfemur 10.9487 5.80108 24.6929
rtibia 23.4486
rfoot -10.4167 13.908
rtoes 7.63217
lfemur -20.8538 -3.41316 -19.8914
ltibia 23.2046
lfoot -1.00768 -5.38794
ltoes -4.24708
562
root 5.21293 17.8247 -2.15344 180.212 212.444 179.683
lowerback 10.06 1.1688 -0.0544328
upperback 0.957233 1.58961 1.12236
thorax -4.67738 0.790739 0.978201
lowerneck -13.4485 -8.65296 -13.7415
upperneck 32.0257 -13.472 11.8078
head 15.2848 -6.14327 4.85856
rclavicle 7.01213e-014 2.38542e-015
rhumerus -42.3322 26.8869 -99.4805
rradius 99.9276
rwrist -11.5453
rhand -21.4982 15.9503
rfingers 7.12502
rthumb 4.89333 -13.9732
lclavicle 7.01213e-014 2.38542e-015
lhumerus -42.9937 -30.3402 98.4128
lradius 99.0329
lwrist -12.1224
lhand -22.1932 18.6701
lfingers 7.12502
lthumb 4.22222 48.608
rfemur 10.8424 5.66999 24.7655
rtibia 24.2504
rfoot -9.23115 14.0037
rtoes 8.70712
lfemur -20.5977 -3.05982 -19.6771
ltibia 23.6013
lfoot -1.28558 -5.58798
ltoes -2.98539
563
root 5.15708 17.8299 -2.02789 180.356 212.91 179.394
lowerback 9.78685 1.22786 0.174907
upperback 1.10687 1.68849 1.12082
thorax -4.36393 0.834757 0.841006
lowerneck -13.8846 -8.6589 -13.5046
upperneck 32.3093 -13.4405 11.5519
head 15.4677 -6.11289 4.71025
rclavicle -1.83876e-015 1.82882e-014
rhumerus -42.169 26.8186 -99.534
rradius 99.8225
rwrist -11.5011
rhand -21.4824 15.8016
rfingers 7.12502
rthumb 4.90856 -14.1215
lclavicle -1.83876e-015 1.82882e-014
lhumerus -42.9749 -30.2592 98.3857
lradius 98.9612
lwrist -12.2121
lhand -21.9488 18.3587
lfingers 7.12502
lthumb 4.45818 48.2918
rfemur 10.6764 5.59565 24.7475
rtibia 25.1757
rfoot -7.87709 13.9227
rtoes 9.72789
lfemur -20.2359 -2.94815 -19.4115
ltibia 23.9661
lfoot -1.71638 -5.74108
ltoes -1.05254
564
root 5.10476 17.8326 -1.9423 180.405 212.703 179.097
lowerback 10.1368 1.1322 0.267957
upperback 1.00494 1.57954 1.19547
thorax -4.66356 0.779593 0.873375
lowerneck -13.5786 -8.62224 -13.6012
upperneck 32.3406 -13.4292 11.6121
head 15.4244 -6.12826 4.7668
rclavicle -6.04305e-014 6.36111e-015
rhumerus -42.6541 26.6285 -99.6186
rradius 99.8611
rwrist -11.5267
rhand -21.4483 15.7039
rfingers 7.12502
rthumb 4.94145 -14.2185
lclavicle -6.04305e-014 6.36111e-015
lhumerus -43.3326 -30.3138 98.7314
lradius 98.8518
lwrist -12.09
lhand -22.1601 18.3445
lfingers 7.12502
lthumb 4.25418 48.2818
rfemur 10.4763 5.10758 24.9574
rtibia 26.2757
rfoot -6.76799 14.0271
rtoes 9.72403
lfemur -19.9402 -2.31998 -19.1982
ltibia 24.2597
lfoot -2.15781 -7.18275
ltoes -0.167068
565
root 5.0508 17.8446 -1.83096 180.48 212.881 178.926
lowerback 10.1055 1.16902 0.378552
upperback 0.949811 1.64218 1.20658
thorax -4.70187 0.808663 0.813972
lowerneck -13.3183 -8.60222 -13.6761
upperneck 32.3241 -13.43 11.6584
head 15.3675 -6.14512 4.80741
rclavicle -1.23768e-013 -1.59028e-015
rhumerus -43.089 26.3608 -99.6637
rradius 99.8609
rwrist -11.4463
rhand -21.4173 15.5044
rfingers 7.12502
rthumb 4.97146 -14.4173
lclavicle -1.23768e-013 -1.59028e-015
lhumerus -43.7227 -30.3963 99.0932
lradius 98.8493
lwrist -12.0144
lhand -22.3063 18.5588
lfingers 7.12502
lthumb 4.11298 48.4989
rfemur 10.0535 4.61154 24.7788
rtibia 27.5842
rfoot -5.7716 15.035
rtoes 9.51392
lfemur -19.5239 -1.84428 -19.087
ltibia 24.3893
lfoot -2.74644 -7.76166
ltoes -0.626796
